<svg xmlns="http://www.w3.org/2000/svg" width="256" height="256" viewBox="0 0 210 225" fill="none">
  <path d="M93.72000089648438,107.91000536012268C89.83000189648438,103.88000736012268,85.94000289648437,99.85000836012267,82.05000289648437,95.82000936012268C80.78000689648438,94.50000936012268,78.87000289648438,93.35000836012267,78.42999989648438,91.79001036012268C77.90000189648437,89.93001036012268,78.62999689648437,87.70001436012268,78.80999789648438,85.64000936012268C80.86000089648438,85.83001136012268,83.58999589648437,85.26001236012269,84.84999889648438,86.36001036012269C88.97999589648438,89.95000636012269,92.56999989648438,94.17000836012268,96.38999889648437,98.11001036012269C97.36000089648437,99.11001036012269,98.44999689648438,100.01001236012269,100.66999789648438,102.04001036012268C100.66999789648438,93.89000936012268,100.65000189648438,87.16001336012268,100.68999489648436,80.43001006012268C100.68999489648436,78.94001226012269,100.37999689648439,77.04001066012268,101.13999189648437,76.07000946012268C102.07999389648438,74.88000703012268,104.22998789648437,73.63000703012268,105.45999189648438,73.94001221612268C106.86999489648437,74.30001283012268,108.76998889648438,76.29001066012268,108.85999289648439,77.68001006012268C109.22999589648438,83.15001126012268,108.95999189648438,88.67000836012268,108.93999489648436,94.16000536012268C108.93999489648436,96.23000536012268,108.93999489648436,98.31000736012268,108.93999489648436,100.38000736012268C109.59999889648438,100.75000936012268,110.24999189648437,101.12000536012268,110.90999589648438,101.49000736012269C114.27999889648437,97.72001136012268,117.62999689648439,93.93001036012268,121.03999289648438,90.19000436012269C122.15999589648438,88.96000136012267,123.44999689648438,87.88000736012268,124.57999389648438,86.66000536012268C126.52999089648438,84.55000536012268,129.09999089648437,83.34000616012268,130.83999589648437,85.99000736012268C131.8199918964844,87.49000736012268,131.6100008964844,90.96000836012269,130.47999589648435,92.44000436012269C127.16999789648438,96.79000336012268,123.11999489648437,100.58000436012267,119.37999689648439,104.60000836012267C118.29999589648438,105.76001236012269,117.29000089648437,106.97001136012268,115.25999489648437,109.29001036012268C123.83999589648437,109.29001036012268,131.0699918964844,109.29001036012268,138.29998789648437,109.29001036012268C139.79998789648437,109.29001036012268,141.29998789648437,109.40001136012268,142.79998789648437,109.31000736012268C145.94998189648436,109.12000536012269,148.04998789648437,110.93001036012268,147.4699858964844,113.63000736012268C147.09999089648437,115.36001036012269,144.39997889648436,117.69000436012269,142.59999089648437,117.82000936012268C135.4699858964844,118.33001136012268,128.28999289648436,118.08001136012268,121.11999489648437,118.11001036012269C119.80999789648438,118.11001036012269,118.48999789648437,118.11001036012269,115.35999289648439,118.11001036012269C118.71999389648437,121.68001036012268,121.08999589648437,124.23001336012268,123.50999489648437,126.74000736012269C125.92999289648438,129.2700063601227,128.84999089648437,131.4700033601227,130.64999389648438,134.37001236012267C131.68998689648436,136.04001036012266,130.95999189648438,138.8200093601227,131.02999889648436,141.10000836012267C128.83000189648436,140.7800013601227,125.88999889648437,141.24000736012266,124.54999589648438,139.99000736012266C119.71999389648437,135.50000236012266,115.42999289648438,130.43001036012268,110.93999489648436,125.58000436012267C110.30999789648438,125.85000036012268,109.67999289648438,126.11000236012268,109.04999589648438,126.38000736012268C109.04999589648438,133.41000536012268,109.18999489648436,140.44000436012269,108.94999689648438,147.4700033601227C108.88999889648437,149.14000136012268,108.01999689648437,151.50999636012267,106.75999489648437,152.25000236012266C103.53999289648438,154.14000136012268,100.58999589648437,152.05999936012267,100.53999289648438,148.16000536012268C100.45999189648438,141.0200063601227,100.51999689648437,133.87001236012267,100.51999689648437,125.25000236012268C98.33999589648437,127.17000036012269,97.02999889648437,128.1999993601227,95.87999689648439,129.38000736012268C92.37999689648437,132.95001436012268,88.93999489648438,136.58000436012267,85.48999789648437,140.19000436012269C83.40999589648438,142.36999736012268,80.88999889648437,143.4799983601227,78.49999989648438,141.19999936012266C75.91000389648437,138.7299983601227,77.01000189648437,136.06999436012268,79.26999689648437,133.80000536012267C82.91999789648438,130.15001136012268,86.59999889648438,126.52000636012268,90.20999889648438,122.83000436012267C91.31999989648438,121.70000636012267,92.22999589648438,120.37000536012269,94.15000189648438,118.01000436012268C85.66000389648437,118.01000436012268,78.42999989648438,118.01000436012268,71.19999699648437,118.01000436012268C69.53999329648437,118.01000436012268,67.48999789648437,118.59000636012269,66.29999539648438,117.83000436012267C64.58999629648437,116.76000436012268,63.499996196484375,114.70000636012267,62.149993896484375,113.06000736012268C63.66999439648438,111.82000936012268,65.12999729648438,109.62000536012269,66.71999359648437,109.52000636012268C73.85999289648437,109.06000736012268,81.03999289648438,109.20000636012267,88.19999689648438,109.12000536012269C89.82999389648438,109.10000836012267,91.45999889648438,109.12000536012269,93.08999589648437,109.12000536012269C93.29999589648438,108.71000136012267,93.51999689648437,108.31000736012268,93.72999589648438,107.90000336012268L93.72000089648438,107.91000536012268Z" fill="#C86F49" fill-opacity="1" style="mix-blend-mode:passthrough"/>
  <path d="M55.25000023950195,174.44000023841858C55.25000023950195,164.47000023841858,55.00000023950195,155.31000023841858,55.36999923950195,146.18001023841856C55.529999239501954,142.2100102384186,54.04999923950195,140.22000023841858,50.79999923950195,138.3900102384186C41.379997239501954,133.07001023841858,32.090000239501954,127.52001023841858,22.819999239501954,121.93001623841857C4.420000039501953,110.83999623841858,-4.179999860498047,87.30000323841858,1.970000039501953,65.12000323841858C7.989999739501953,43.36999923841858,27.649999239501952,27.60000061841858,48.900001239501954,27.50000023841858C50.18000023950195,27.50000023841858,51.46000323950195,27.75000023841858,52.900001239501954,27.910000088418577C52.800003239501955,28.64999983841858,52.76000223950195,29.11000083841858,52.670002239501954,29.55999973841858C51.400001239501954,36.30999783841858,47.95000123950195,39.509998238418575,40.620003239501955,41.23000023841858C24.220003239501953,45.07999823841858,14.910003239501954,56.910000238418576,12.450002239501954,73.27000423841858C9.940002439501953,89.91000423841858,15.880003239501953,103.42000623841858,30.480003239501954,112.48000323841858C40.94000223950195,118.97000123841858,51.44000223950195,125.45000523841858,62.160003239501954,131.49001023841856C66.24000923950196,133.79001023841857,67.53000223950195,136.52000023841856,67.33000523950196,140.99001023841856C66.99000923950196,148.81001023841858,66.88000823950195,156.66000023841858,67.30000723950195,164.47000023841858C67.55000723950195,169.03000023841858,65.81999623950195,171.2100102384186,61.71000323950195,172.25000023841858C59.82000323950195,172.73000023841857,58.000004239501955,173.4900102384186,55.24000123950195,174.44000023841858L55.25000023950195,174.44000023841858Z" fill="#FFFFFF" fill-opacity="1" style="mix-blend-mode:passthrough"/>
  <path d="M156.39000296313478,194.6900007724762C157.31999596313477,191.4600007724762,157.92999696313476,188.1600007724762,159.30000696313476,185.19999077247618C159.83999996313477,184.0399907724762,161.99000896313476,183.2700007724762,163.53000296313476,182.97999077247619C179.02000796313476,180.0199907724762,190.16000796313477,171.64000077247618,195.07001096313476,156.47999077247619C199.79001196313476,141.9400007724762,197.05000696313476,128.4100017724762,186.63000896313477,117.0299967724762C183.43001196313477,113.5399987724762,179.26001396313478,110.7999937724762,175.20001596313477,108.2699947724762C165.45001596313477,102.1999957724762,155.41000796313477,96.5999967724762,145.71001056313477,90.4699997724762C144.03001786313476,89.41000177247619,142.57001114313476,86.6799987724762,142.49000930313477,84.66000177247619C142.14000320313477,76.18000577247619,142.35000991813476,67.68000577247619,142.36000442513478,59.190000772476196C142.36000442513478,50.4600012724762,144.18001176313476,48.719999552476196,154.27000796313476,48.440000772476196C154.27000796313476,57.3700010724762,154.56000096313477,66.3000017724762,154.16000796313477,75.2100047724762C153.94000596313475,80.1400057724762,155.38000896313477,82.93000577247619,159.89000296313478,85.3400027724762C169.11999896313478,90.28000477247619,178.00999796313477,95.8900057724762,186.86999896313478,101.48000177247619C204.89999796313475,112.8400027724762,213.44000596313475,137.77999677247618,206.84999496313475,159.2200007724762C200.22999996313476,180.7200007724762,179.79999196313477,195.72999077247619,158.08999996313477,195.0100107724762C157.61000396313477,194.9900007724762,157.12999296313475,194.8400107724762,156.41000796313477,194.7000107724762L156.39000296313478,194.6900007724762Z" fill="#FFFFFF" fill-opacity="1" style="mix-blend-mode:passthrough"/>
  <path d="M129.8699871128464,184.6499964973297C122.57999711284637,180.45999349732972,115.17999711284638,176.4200004973297,108.00999711284638,171.9899924973297C105.60999711284637,170.50999649732972,103.97999711284638,170.6999994973297,101.76999711284637,172.0799884973297C92.87999911284638,177.61998249732972,84.00000211284637,183.1999834973297,74.90999811284638,188.40999049732972C42.94999911284638,206.70999349732972,3.1599959128463744,184.8599874973297,1.1999969478463746,148.0299854973297C0.6699969728463745,138.16998549732972,2.2599969128463746,128.82998869732972,7.629996612846375,120.10998749732971C10.529996712846375,122.59998539732972,13.279997112846374,124.95998599732971,14.809996112846374,126.2799856973297C14.359997112846374,135.64998049732972,12.399997112846375,144.2599814973297,13.849996112846375,152.2499864973297C18.629997112846375,178.6299914973297,46.72999711284638,190.9399894973297,70.25999611284638,177.5499894973297C80.51999811284638,171.70999349732972,90.56999411284637,165.4899924973297,100.54999711284637,159.1999834973297C103.57999711284637,157.2899804973297,105.86999711284638,156.89998049732972,109.03999711284638,158.9999864973297C114.84999711284638,162.8599874973297,120.99999711284637,166.20999349732972,127.00999711284638,169.76999149732973C134.4699971128464,174.18998949732972,134.91999711284637,176.26999149732973,129.85999711284637,184.66998549732972L129.8699871128464,184.6499964973297Z" fill="#FFFFFF" fill-opacity="1" style="mix-blend-mode:passthrough"/>
  <path d="M202.59000240844728,103.17000046559143C201.84000240844728,102.65999846559143,201.56000240844725,102.49000046559144,201.30000240844726,102.29000346559143C196.13001240844727,98.23000546559143,193.95000240844726,94.34000646559143,195.74001240844728,86.59000646559143C199.54001240844727,70.15000346559142,193.93001240844728,55.75000446559143,179.57001240844727,46.18000446559143C164.86000440844725,36.390003465591434,149.52000840844727,36.65000556559143,134.43001140844726,45.91000346559143C125.06000940844726,51.66000346559143,115.69001340844727,57.40000146559143,106.46001040844726,63.38000746559143C103.73000740844726,65.15000346559142,101.69001340844727,65.46000846559143,98.83001340844726,63.62000446559143C93.37001440844726,60.11001046559143,87.64001040844727,57.03000646559143,82.01001360844727,53.79000846559143Q75.33001330844726,49.95000846559143,77.78001021844726,42.45000846559143C78.08001327844727,41.52000846559143,78.51001360844727,40.63000846559143,79.16000750844726,39.07000746559143C85.82001110844726,42.88000846559143,92.34000740844726,46.410007465591434,98.63000840844727,50.300007465591435C101.29001240844727,51.95000846559143,103.18001140844726,51.88000846559143,105.78001040844727,50.150005465591434C113.97001240844727,44.72000546559143,122.22001240844727,39.36000446559143,130.69000640844726,34.39000726559143C148.35001040844725,24.02000836559143,166.51001340844726,24.15000746559143,183.83000240844729,34.490005765591434C200.90000240844728,44.68000446559143,208.85001240844727,60.62000446559143,208.59000240844728,80.56000746559144C208.48999240844728,88.51000446559144,206.59999240844726,95.97000346559143,202.58000240844729,103.16000546559142L202.59000240844728,103.17000046559143Z" fill="#FFFFFF" fill-opacity="1" style="mix-blend-mode:passthrough"/>
  <path d="M181.05999504638672,124.71000119615783C172.94999504638673,129.58999879615783,165.3499950463867,134.33000379615783,157.56999204638672,138.75999679615785C154.9299930463867,140.26999079615783,153.81999204638672,141.90999079615784,153.87999004638672,145.01999079615783C154.06999204638672,154.50999679615785,154.11999504638672,164.01999079615783,153.85998504638673,173.50999679615785C153.27998304638672,194.26999079615786,144.1999820463867,210.23999279615782,125.27998304638672,219.16999879615784C106.24998504638671,228.16000879615785,88.24998504638671,224.80000879615784,72.27998354638672,211.30000479615785C68.81998444638671,208.38000679615783,66.21998594638671,204.44999879615784,62.67998504638672,200.33999879615783C66.65998844638672,198.97000379615784,69.54998774638672,197.73999279615782,72.54998774638672,197.05999979615785C73.57998704638672,196.83000379615783,75.23999004638672,197.67999479615784,76.06998404638672,198.55999979615785C88.18998704638672,211.30000479615785,103.27998304638672,215.19000479615784,118.17998504638672,209.28000079615782C132.91998304638673,203.44000479615784,142.21998604638674,189.11000279615786,142.21998604638674,172.28000079615782C142.21998604638674,161.11000279615783,142.35998504638673,149.94999879615784,142.1799930463867,138.78000079615782C142.12999004638672,135.67999479615784,143.25000004638673,133.86999679615784,145.80999804638674,132.36000279615783C152.69000204638672,128.30000479615785,159.75999404638674,124.47000339615784,166.19999504638673,119.78000089615784C170.9199950463867,116.35000059615784,174.2299950463867,117.28000092615784,177.69999504638673,121.01000429615783C178.69000504638672,122.07000179615784,179.66000504638671,123.15000369615784,181.05999504638672,124.69000459615783L181.05999504638672,124.71000119615783Z" fill="#FFFFFF" fill-opacity="1" style="mix-blend-mode:passthrough"/>
</svg>
